PathFileType	4	(X/Y/Z)	C:/Users/opensim2020/Desktop/walking_exp_matlab/subject06_walking11_run_cyclic.trc																																																																																																																																								
DataRate	CameraRate	NumFrames	NumMarkers	Units	OrigDataRate	OrigDataStartFrame	OrigNumFrames																																																																																																																																				
100	100	6	46	mm	100	224	66																																																																																																																																				
Frame#	Time	LKNE			RKNE			RFRM			RWRA			RWRB			RELB			RUPA			RSHO			LWRA			RFIN			RFHD			CLAV			RASI			RTHI			LSHO			LTHI			RBHD			C7			LTIB			LANK			LTOE			LBHD			RTIB			RBAK			LHEE			RANK			STRN			RHEE			RTOE			T10			LUPA			LFHD			LPSI			RPSI			LASI			LFRM			LWRB			LFIN			LELB			*39			*40			*41			*42			*43			*44			*45		
		X1	Y1	Z1	X2	Y2	Z2	X3	Y3	Z3	X4	Y4	Z4	X5	Y5	Z5	X6	Y6	Z6	X7	Y7	Z7	X8	Y8	Z8	X9	Y9	Z9	X10	Y10	Z10	X11	Y11	Z11	X12	Y12	Z12	X13	Y13	Z13	X14	Y14	Z14	X15	Y15	Z15	X16	Y16	Z16	X17	Y17	Z17	X18	Y18	Z18	X19	Y19	Z19	X20	Y20	Z20	X21	Y21	Z21	X22	Y22	Z22	X23	Y23	Z23	X24	Y24	Z24	X25	Y25	Z25	X26	Y26	Z26	X27	Y27	Z27	X28	Y28	Z28	X29	Y29	Z29	X30	Y30	Z30	X31	Y31	Z31	X32	Y32	Z32	X33	Y33	Z33	X34	Y34	Z34	X35	Y35	Z35	X36	Y36	Z36	X37	Y37	Z37	X38	Y38	Z38	X39	Y39	Z39	X40	Y40	Z40	X41	Y41	Z41	X42	Y42	Z42	X43	Y43	Z43	X44	Y44	Z44	X45	Y45	Z45	X46	Y46	Z46
																																																																																																																																											
10	0.09	-225.87132	555.04901	104.76357	-532.71478	552.87	358.41208	-253.91344	1176.34509	446.65402	-213.95262	1244.01355	329.22299	-179.99931	1188.68054	338.92981	-314.88998	1191.48474	527.87714	-316.14072	1294.54077	488.76825	-271.65317	1445.86877	353.37854	-368.05154	1182.26294	23.77024	-138.02718	1242.57532	292.68903	-210.32573	1671.07678	264.7583	-257.39114	1393.80054	194.81216	-297.81497	975.25909	332.86969	-477.4151	668.78571	381.18304	-344.27316	1448.29089	59.7034	-300.15717	695.4538	62.36014	-343.61023	1625.40625	270.04065	-354.11588	1482.73547	212.86685	-200.82985	303.36292	130.13165	-163.74309	137.25435	184.82504	-16.43328	97.95213	213.02573	-352.39008	1630.48438	140.91911	-752.43292	392.58145	354.08231	-430.83203	1334.04663	316.59735	-204.21494	129.64165	230.96901	-901.67297	285.95541	313.70551	-239.23764	1212.69348	195.78438	-933.70471	312.17255	273.35541	-891.41864	121.18115	297.36288	-435.32269	1172.67407	243.87006	-481.80292	1346.84949	-24.92663	-218.13263	1681.7926	133.28204	-452.19312	1037.61938	150.86182	-436.82068	1036.29541	315.92349	-306.30066	982.05151	122.71885	-482.05624	1186.16858	-40.93637	-394.64001	1120.1637	2.83672	-303.92245	1111.11536	16.69723	-567.03009	1284.98462	-50.69915	NaN	NaN	NaN	-313.69604	1723.22791	197.80672	NaN	NaN	NaN	NaN	NaN	NaN	NaN	NaN	NaN	NaN	NaN	NaN	NaN	NaN	NaN
11	0.1	-193.31114	549.87122	106.13223	-485.48474	548.10181	357.44388	-219.31494	1174.91614	449.53525	-177.45099	1238.42981	330.21124	-144.06963	1183.24377	342.14691	-281.40457	1193.21802	529.64911	-281.59143	1295.50867	489.04587	-234.4915	1444.89075	352.23181	-326.59555	1178.96448	23.50122	-101.01846	1235.37964	294.40439	-174.66	1670.83521	262.48749	-219.77882	1392.58423	193.59288	-259.65448	975.65656	333.36832	-433.10178	665.71338	380.48785	-306.4426	1445.87891	57.36297	-267.26208	689.84058	60.97225	-307.5412	1623.9635	267.22021	-316.64322	1481.62695	210.64032	-165.59349	299.37341	132.03606	-125.86436	134.29424	186.59131	22.64239	93.81195	207.94788	-315.52356	1628.37988	138.02174	-710.08264	394.08209	353.09384	-393.75104	1332.97266	314.55612	-163.74608	127.13926	234.77151	-862.52875	292.30954	312.70673	-201.48251	1211.72473	195.32875	-895.05554	318.66034	271.55789	-851.32092	128.53133	298.80441	-397.52283	1170.3717	243.11513	-442.2467	1341.87231	-27.85189	-181.58925	1681.04407	130.96347	-413.74799	1035.50232	150.43425	-399.24359	1034.89014	315.73215	-267.89847	980.57397	123.6288	-439.79752	1181.09558	-42.93747	-351.96353	1116.20679	2.14103	-261.07468	1108.75452	17.97769	-526.28174	1278.57935	-54.34566	NaN	NaN	NaN	-278.04236	1721.72095	194.76459	NaN	NaN	NaN	NaN	NaN	NaN	NaN	NaN	NaN	NaN	NaN	NaN	NaN	NaN	NaN
12	0.11	-160.29419	544.74799	107.4006	-436.46271	541.30652	356.64438	-186.63902	1172.11975	452.10785	-140.817	1230.72852	331.69791	-108.51778	1175.36694	346.10645	-248.93787	1194.37793	531.03156	-247.39934	1296.15198	489.2662	-197.46964	1443.06445	350.91623	-284.16467	1174.20081	23.27567	-63.83882	1225.17493	297.23575	-138.98259	1669.52637	260.48843	-182.16206	1390.50867	192.41357	-221.72858	975.18018	334.36646	-387.37613	660.54523	379.73471	-268.48419	1442.52734	55.11713	-233.82912	684.12006	60.54219	-271.496	1621.47583	264.49469	-279.29553	1479.27222	208.2838	-132.84335	294.37665	134.08006	-93.43518	129.82431	188.70221	55.32395	87.05973	203.38684	-278.5975	1625.42908	135.213	-664.22363	393.03375	352.33884	-356.9646	1331.53137	312.5592	-129.14226	123.65356	238.90059	-820.91876	297.57523	312.5058	-163.55313	1209.88452	194.84952	-854.32837	324.45679	270.69684	-808.57477	135.35164	300.24222	-360.04404	1167.59204	242.38094	-402.14316	1335.78308	-31.08134	-145.28932	1679.11816	128.88309	-375.27536	1032.83984	150.02359	-361.82425	1032.68237	315.62985	-229.66354	978.27692	124.36428	-396.18265	1174.31067	-45.3108	-308.19562	1110.63562	1.49724	-217.27946	1105.04895	19.43778	-484.2392	1270.35095	-58.63761	NaN	NaN	NaN	-242.35483	1719.29956	191.86647	NaN	NaN	NaN	NaN	NaN	NaN	NaN	NaN	NaN	NaN	NaN	NaN	NaN	NaN	NaN
13	0.12	-126.77839	539.28973	108.20181	-385.60587	532.89331	356.09711	-154.08641	1168.22559	455.20163	-104.11859	1220.7594	333.67444	-73.94525	1165.08496	350.51462	-217.65733	1194.89233	532.14459	-214.14854	1296.16833	488.69473	-160.69394	1440.474	349.43579	-240.58183	1168.0321	23.02947	-26.60315	1211.71936	301.46524	-103.35197	1667.10645	258.7088	-144.57848	1387.41138	191.34828	-184.32771	973.7124	335.43796	-340.79477	653.9411	379.22165	-230.42892	1438.16003	53.01729	-199.55562	678.61884	61.65894	-235.53947	1618.06238	261.83517	-242.26672	1475.95959	205.91325	-103.18945	288.25558	136.4617	-65.44407	123.65273	191.18022	82.54435	77.94987	200.6535	-241.67365	1621.64368	132.45714	-615.46442	390.03412	351.90564	-320.38419	1329.55518	310.40289	-99.06411	118.44966	242.68629	-777.02728	302.1539	312.90891	-126.18076	1207.05164	194.78326	-811.5105	329.43362	270.71146	-762.98022	141.89392	302.26773	-322.65857	1164.44946	241.79834	-361.49622	1328.48474	-34.61041	-108.61493	1676.42529	127.04169	-336.99606	1029.58411	150.03577	-324.34763	1029.52295	315.74478	-191.42856	975.03125	124.87336	-351.23514	1165.93799	-48.1054	-262.6994	1104.7467	0.9868	-172.54535	1100.16736	20.92586	-441.02185	1260.32568	-63.50614	NaN	NaN	NaN	-206.63802	1715.92578	189.19444	NaN	NaN	NaN	NaN	NaN	NaN	NaN	NaN	NaN	NaN	NaN	NaN	NaN	NaN	NaN
14	0.13	-93.3157	533.31976	108.5424	-333.22012	523.26074	355.76083	-122.49346	1162.90503	458.45767	-67.02666	1209.21375	336.61154	-39.85645	1152.71167	355.96735	-187.47119	1194.64734	532.74017	-181.7952	1295.93884	488.15518	-124.3	1437.12305	347.79562	-196.51086	1160.79211	22.947	10.52041	1195.6582	306.66394	-67.83764	1663.54761	257.21472	-106.99845	1383.30176	190.41254	-147.16896	971.05853	336.58652	-293.59793	646.13031	378.89255	-192.22687	1432.65808	51.00613	-164.78168	673.42511	63.68482	-199.79041	1613.62476	259.19019	-205.14827	1471.64148	203.38989	-76.22895	281.37112	138.61166	-41.81755	116.29124	193.32011	104.7497	67.63537	200.51512	-204.76892	1616.97522	129.81424	-564.84308	386.08209	351.703	-284.19302	1326.88525	308.12177	-74.37206	111.74172	245.11667	-730.40967	306.15768	313.68173	-88.69016	1202.96021	194.81384	-766.00586	333.70566	271.02438	-714.64893	147.7236	305.24603	-285.64642	1161.13123	241.31805	-320.10434	1319.82898	-38.4442	-72.02923	1672.57471	125.52168	-299.25687	1025.57324	150.64317	-287.33704	1025.4021	316.35052	-153.12415	970.98383	125.15721	-304.89249	1155.99792	-50.897	-216.89354	1096.66223	0.82379	-126.91051	1094.17761	22.56833	-396.52936	1248.56885	-68.92596	NaN	NaN	NaN	-170.80638	1711.60889	186.69447	NaN	NaN	NaN	NaN	NaN	NaN	NaN	NaN	NaN	NaN	NaN	NaN	NaN	NaN	NaN
15	0.14	-59.82717	526.84949	108.58878	-279.20715	512.67889	355.68625	-91.77841	1156.19812	461.87714	-30.59142	1194.97107	340.33987	-6.68033	1138.27014	362.27597	-158.18149	1193.63782	532.75745	-150.14343	1294.8241	486.82248	-88.32753	1432.86414	346.06699	-151.46924	1152.25281	22.94346	46.76161	1176.89368	313.0036	-32.54031	1658.98267	255.93791	-69.42175	1378.15503	189.65269	-109.97344	967.17584	337.63065	-245.51674	637.34723	378.918	-153.69247	1426.11462	48.99845	-129.03609	668.84845	66.19067	-164.15518	1608.23743	256.58722	-168.2531	1466.4303	200.8754	-51.13063	273.71817	139.63405	-22.25803	107.66898	195.01019	123.36372	56.60459	202.94154	-167.80728	1611.34326	127.12316	-512.46783	381.85025	351.90576	-247.71194	1323.2323	305.61392	-55.30501	103.70004	246.68724	-681.34192	309.65817	314.56204	-50.87246	1197.85461	195.19379	-717.64752	337.13074	271.15839	-665.82727	152.18262	308.65466	-248.61766	1157.12146	240.97989	-278.02597	1309.76599	-42.7478	-35.44028	1667.70837	124.19285	-262.09894	1020.65021	151.88184	-249.67146	1019.99506	317.22391	-114.76873	966.51624	125.35454	-257.70096	1144.82251	-53.94513	-169.61601	1088.00842	0.55221	-80.55104	1087.13867	24.36305	-350.888	1235.47742	-74.79347	NaN	NaN	NaN	-134.98322	1706.27856	184.25974	NaN	NaN	NaN	NaN	NaN	NaN	NaN	NaN	NaN	NaN	NaN	NaN	NaN	NaN	NaN
